<svg xmlns="http://www.w3.org/2000/svg" xmlns:xlink="http://www.w3.org/1999/xlink" width="2500" height="404pt" viewBox="0 0 1875.37 404"><g id="graph0" class="graph" transform="scale(1 1) rotate(0) translate(4 400)"><title>G</title><polygon fill="#fff" stroke="transparent" points="-4 4 -4 -400 1871.37 -400 1871.37 4 -4 4"/><g id="node1" class="node"><title>Choice</title><g id="a_node1"><a xlink:href="./modules/Choice.ts.html" xlink:title="Choice"><ellipse cx="801.007" cy="-90" fill="#b3abf4" stroke="#000" rx="41.168" ry="18"/><text x="801.007" y="-85.8" fill="#000" font-family="arial" font-size="14" text-anchor="middle">Choice</text></a></g></g><g id="node2" class="node"><title>Profunctor</title><g id="a_node2"><a xlink:href="./modules/Profunctor.ts.html" xlink:title="Profunctor"><ellipse cx="702.007" cy="-162" fill="#b3abf4" stroke="#000" rx="55.651" ry="18"/><text x="702.007" y="-157.8" fill="#000" font-family="arial" font-size="14" text-anchor="middle">Profunctor</text></a></g></g><g id="edge2" class="edge"><title>Choice-&gt;Profunctor</title><path fill="none" stroke="#000" d="M779.5253,-105.6229C766.0244,-115.4418 748.3771,-128.2762 733.3313,-139.2185"/><polygon fill="#000" stroke="#000" points="730.853 -136.693 724.824 -145.405 734.97 -142.354 730.853 -136.693"/></g><g id="node20" class="node"><title>Functor</title><g id="a_node20"><a xlink:href="./modules/Functor.ts.html" xlink:title="Functor"><ellipse cx="383.007" cy="-234" fill="#659dfe" stroke="#000" rx="43.537" ry="18"/><text x="383.007" y="-229.8" fill="#000" font-family="arial" font-size="14" text-anchor="middle">Functor</text></a></g></g><g id="edge11" class="edge"><title>Profunctor-&gt;Functor</title><path fill="none" stroke="#000" d="M659.0128,-173.5169C650.4156,-175.7348 641.4368,-177.991 633.0068,-180 563.7036,-196.5164 483.0693,-213.5413 432.53,-223.9496"/><polygon fill="#000" stroke="#000" points="431.618 -220.564 422.527 -226.004 433.026 -227.421 431.618 -220.564"/></g><g id="node3" class="node"><title>Strong</title><g id="a_node3"><a xlink:href="./modules/Strong.ts.html" xlink:title="Strong"><ellipse cx="702.007" cy="-90" fill="#b3abf4" stroke="#000" rx="39.46" ry="18"/><text x="702.007" y="-85.8" fill="#000" font-family="arial" font-size="14" text-anchor="middle">Strong</text></a></g></g><g id="edge1" class="edge"><title>Strong-&gt;Profunctor</title><path fill="none" stroke="#000" d="M702.0068,-108.1686C702.0068,-115.869 702.0068,-125.0257 702.0068,-133.5834"/><polygon fill="#000" stroke="#000" points="698.507 -133.587 702.007 -143.587 705.507 -133.587 698.507 -133.587"/></g><g id="node4" class="node"><title>Group</title><g id="a_node4"><a xlink:href="./modules/Group.ts.html" xlink:title="Group"><ellipse cx="903.007" cy="-18" fill="#fc81bf" stroke="#000" rx="37.737" ry="18"/><text x="903.007" y="-13.8" fill="#000" font-family="arial" font-size="14" text-anchor="middle">Group</text></a></g></g><g id="node6" class="node"><title>Monoid</title><g id="a_node6"><a xlink:href="./modules/Monoid.ts.html" xlink:title="Monoid"><ellipse cx="903.007" cy="-90" fill="#fc81bf" stroke="#000" rx="42.893" ry="18"/><text x="903.007" y="-85.8" fill="#000" font-family="arial" font-size="14" text-anchor="middle">Monoid</text></a></g></g><g id="edge3" class="edge"><title>Group-&gt;Monoid</title><path fill="none" stroke="#000" d="M903.0068,-36.1686C903.0068,-43.869 903.0068,-53.0257 903.0068,-61.5834"/><polygon fill="#000" stroke="#000" points="899.507 -61.587 903.007 -71.587 906.507 -61.587 899.507 -61.587"/></g><g id="node5" class="node"><title>Magma</title><g id="a_node5"><a xlink:href="./modules/Magma.ts.html" xlink:title="Magma"><ellipse cx="903.007" cy="-234" fill="#fc81bf" stroke="#000" rx="43.457" ry="18"/><text x="903.007" y="-229.8" fill="#000" font-family="arial" font-size="14" text-anchor="middle">Magma</text></a></g></g><g id="node7" class="node"><title>Semigroup</title><g id="a_node7"><a xlink:href="./modules/Semigroup.ts.html" xlink:title="Semigroup"><ellipse cx="903.007" cy="-162" fill="#fc81bf" stroke="#000" rx="57.939" ry="18"/><text x="903.007" y="-157.8" fill="#000" font-family="arial" font-size="14" text-anchor="middle">Semigroup</text></a></g></g><g id="edge4" class="edge"><title>Monoid-&gt;Semigroup</title><path fill="none" stroke="#000" d="M903.0068,-108.1686C903.0068,-115.869 903.0068,-125.0257 903.0068,-133.5834"/><polygon fill="#000" stroke="#000" points="899.507 -133.587 903.007 -143.587 906.507 -133.587 899.507 -133.587"/></g><g id="edge5" class="edge"><title>Semigroup-&gt;Magma</title><path fill="none" stroke="#000" d="M903.0068,-180.1686C903.0068,-187.869 903.0068,-197.0257 903.0068,-205.5834"/><polygon fill="#000" stroke="#000" points="899.507 -205.587 903.007 -215.587 906.507 -205.587 899.507 -205.587"/></g><g id="node8" class="node"><title>Field</title><g id="a_node8"><a xlink:href="./modules/Field.ts.html" xlink:title="Field"><ellipse cx="1028.007" cy="-18" fill="#fdf4aa" stroke="#000" rx="31.917" ry="18"/><text x="1028.007" y="-13.8" fill="#000" font-family="arial" font-size="14" text-anchor="middle">Field</text></a></g></g><g id="node9" class="node"><title>Ring</title><g id="a_node9"><a xlink:href="./modules/Ring.ts.html" xlink:title="Ring"><ellipse cx="1028.007" cy="-90" fill="#fdf4aa" stroke="#000" rx="30.775" ry="18"/><text x="1028.007" y="-85.8" fill="#000" font-family="arial" font-size="14" text-anchor="middle">Ring</text></a></g></g><g id="edge6" class="edge"><title>Field-&gt;Ring</title><path fill="none" stroke="#000" d="M1028.0068,-36.1686C1028.0068,-43.869 1028.0068,-53.0257 1028.0068,-61.5834"/><polygon fill="#000" stroke="#000" points="1024.507 -61.587 1028.007 -71.587 1031.507 -61.587 1024.507 -61.587"/></g><g id="node10" class="node"><title>Semiring</title><g id="a_node10"><a xlink:href="./modules/Semiring.ts.html" xlink:title="Semiring"><ellipse cx="1028.007" cy="-162" fill="#fdf4aa" stroke="#000" rx="49.251" ry="18"/><text x="1028.007" y="-157.8" fill="#000" font-family="arial" font-size="14" text-anchor="middle">Semiring</text></a></g></g><g id="edge7" class="edge"><title>Ring-&gt;Semiring</title><path fill="none" stroke="#000" d="M1028.0068,-108.1686C1028.0068,-115.869 1028.0068,-125.0257 1028.0068,-133.5834"/><polygon fill="#000" stroke="#000" points="1024.507 -133.587 1028.007 -143.587 1031.507 -133.587 1024.507 -133.587"/></g><g id="node11" class="node"><title>Ord</title><g id="a_node11"><a xlink:href="./modules/Ord.ts.html" xlink:title="Ord"><ellipse cx="1134.007" cy="-90" fill="#fc81bf" stroke="#000" rx="27.264" ry="18"/><text x="1134.007" y="-85.8" fill="#000" font-family="arial" font-size="14" text-anchor="middle">Ord</text></a></g></g><g id="node12" class="node"><title>Setoid</title><g id="a_node12"><a xlink:href="./modules/Setoid.ts.html" xlink:title="Setoid"><ellipse cx="1134.007" cy="-162" fill="#fc81bf" stroke="#000" rx="38.316" ry="18"/><text x="1134.007" y="-157.8" fill="#000" font-family="arial" font-size="14" text-anchor="middle">Setoid</text></a></g></g><g id="edge9" class="edge"><title>Ord-&gt;Setoid</title><path fill="none" stroke="#000" d="M1134.0068,-108.1686C1134.0068,-115.869 1134.0068,-125.0257 1134.0068,-133.5834"/><polygon fill="#000" stroke="#000" points="1130.507 -133.587 1134.007 -143.587 1137.507 -133.587 1130.507 -133.587"/></g><g id="node13" class="node"><title>Bounded</title><g id="a_node13"><a xlink:href="./modules/Bounded.ts.html" xlink:title="Bounded"><ellipse cx="1134.007" cy="-18" fill="#fecfe6" stroke="#000" rx="49.874" ry="18"/><text x="1134.007" y="-13.8" fill="#000" font-family="arial" font-size="14" text-anchor="middle">Bounded</text></a></g></g><g id="edge8" class="edge"><title>Bounded-&gt;Ord</title><path fill="none" stroke="#000" d="M1134.0068,-36.1686C1134.0068,-43.869 1134.0068,-53.0257 1134.0068,-61.5834"/><polygon fill="#000" stroke="#000" points="1130.507 -61.587 1134.007 -71.587 1137.507 -61.587 1130.507 -61.587"/></g><g id="node14" class="node"><title>Category</title><g id="a_node14"><a xlink:href="./modules/Category.ts.html" xlink:title="Category"><ellipse cx="1252.007" cy="-18" fill="#fdf4aa" stroke="#000" rx="50.417" ry="18"/><text x="1252.007" y="-13.8" fill="#000" font-family="arial" font-size="14" text-anchor="middle">Category</text></a></g></g><g id="node15" class="node"><title>Semigroupoid</title><g id="a_node15"><a xlink:href="./modules/Semigroupoid.ts.html" xlink:title="Semigroupoid"><ellipse cx="1252.007" cy="-90" fill="#fdf4aa" stroke="#000" rx="70.697" ry="18"/><text x="1252.007" y="-85.8" fill="#000" font-family="arial" font-size="14" text-anchor="middle">Semigroupoid</text></a></g></g><g id="edge10" class="edge"><title>Category-&gt;Semigroupoid</title><path fill="none" stroke="#000" d="M1252.0068,-36.1686C1252.0068,-43.869 1252.0068,-53.0257 1252.0068,-61.5834"/><polygon fill="#000" stroke="#000" points="1248.507 -61.587 1252.007 -71.587 1255.507 -61.587 1248.507 -61.587"/></g><g id="node16" class="node"><title>Alternative</title><g id="a_node16"><a xlink:href="./modules/Alternative.ts.html" xlink:title="Alternative"><ellipse cx="287.007" cy="-18" fill="#659dfe" stroke="#000" rx="56.793" ry="18"/><text x="287.007" y="-13.8" fill="#000" font-family="arial" font-size="14" text-anchor="middle">Alternative</text></a></g></g><g id="node17" class="node"><title>Applicative</title><g id="a_node17"><a xlink:href="./modules/Applicative.ts.html" xlink:title="Applicative"><ellipse cx="373.007" cy="-90" fill="#659dfe" stroke="#000" rx="57.939" ry="18"/><text x="373.007" y="-85.8" fill="#000" font-family="arial" font-size="14" text-anchor="middle">Applicative</text></a></g></g><g id="edge14" class="edge"><title>Alternative-&gt;Applicative</title><path fill="none" stroke="#000" d="M307.3876,-35.063C318.6334,-44.478 332.7646,-56.3088 345.0304,-66.5779"/><polygon fill="#000" stroke="#000" points="342.858 -69.324 352.772 -73.059 347.351 -63.956 342.858 -69.324"/></g><g id="node23" class="node"><title>Alt</title><g id="a_node23"><a xlink:href="./modules/Alt.ts.html" xlink:title="Alt"><ellipse cx="289.007" cy="-162" fill="#bfd7ff" stroke="#000" rx="27" ry="18"/><text x="289.007" y="-157.8" fill="#000" font-family="arial" font-size="14" text-anchor="middle">Alt</text></a></g></g><g id="edge15" class="edge"><title>Alternative-&gt;Alt</title><path fill="none" stroke="#000" d="M287.2601,-36.2377C287.6013,-60.799 288.2117,-104.7526 288.613,-133.6459"/><polygon fill="#000" stroke="#000" points="285.117 -133.96 288.756 -143.91 292.116 -133.863 285.117 -133.96"/></g><g id="node24" class="node"><title>Apply</title><g id="a_node24"><a xlink:href="./modules/Apply.ts.html" xlink:title="Apply"><ellipse cx="485.007" cy="-162" fill="#bfd7ff" stroke="#000" rx="35.37" ry="18"/><text x="485.007" y="-157.8" fill="#000" font-family="arial" font-size="14" text-anchor="middle">Apply</text></a></g></g><g id="edge17" class="edge"><title>Applicative-&gt;Apply</title><path fill="none" stroke="#000" d="M398.4214,-106.3379C415.0193,-117.008 436.7884,-131.0024 454.3461,-142.2896"/><polygon fill="#000" stroke="#000" points="452.79 -145.45 463.094 -147.913 456.575 -139.561 452.79 -145.45"/></g><g id="node18" class="node"><title>Compactable</title><g id="a_node18"><a xlink:href="./modules/Compactable.ts.html" xlink:title="Compactable"><ellipse cx="195.007" cy="-234" fill="#659dfe" stroke="#000" rx="67.832" ry="18"/><text x="195.007" y="-229.8" fill="#000" font-family="arial" font-size="14" text-anchor="middle">Compactable</text></a></g></g><g id="node19" class="node"><title>Foldable</title><g id="a_node19"><a xlink:href="./modules/Foldable.ts.html" xlink:title="Foldable"><ellipse cx="61.007" cy="-234" fill="#659dfe" stroke="#000" rx="48.126" ry="18"/><text x="61.007" y="-229.8" fill="#000" font-family="arial" font-size="14" text-anchor="middle">Foldable</text></a></g></g><g id="node21" class="node"><title>Monad</title><g id="a_node21"><a xlink:href="./modules/Monad.ts.html" xlink:title="Monad"><ellipse cx="402.007" cy="-18" fill="#659dfe" stroke="#000" rx="40.606" ry="18"/><text x="402.007" y="-13.8" fill="#000" font-family="arial" font-size="14" text-anchor="middle">Monad</text></a></g></g><g id="edge16" class="edge"><title>Monad-&gt;Applicative</title><path fill="none" stroke="#000" d="M394.8383,-35.7978C391.5864,-43.8713 387.667,-53.6024 384.0518,-62.578"/><polygon fill="#000" stroke="#000" points="380.784 -61.323 380.294 -71.907 387.277 -63.939 380.784 -61.323"/></g><g id="node26" class="node"><title>Chain</title><g id="a_node26"><a xlink:href="./modules/Chain.ts.html" xlink:title="Chain"><ellipse cx="485.007" cy="-90" fill="#bfd7ff" stroke="#000" rx="36.013" ry="18"/><text x="485.007" y="-85.8" fill="#000" font-family="arial" font-size="14" text-anchor="middle">Chain</text></a></g></g><g id="edge19" class="edge"><title>Monad-&gt;Chain</title><path fill="none" stroke="#000" d="M420.8408,-34.3379C432.1404,-44.14 446.674,-56.7474 459.0512,-67.4843"/><polygon fill="#000" stroke="#000" points="456.97 -70.313 466.818 -74.222 461.557 -65.025 456.97 -70.313"/></g><g id="node22" class="node"><title>Traversable</title><g id="a_node22"><a xlink:href="./modules/Traversable.ts.html" xlink:title="Traversable"><ellipse cx="62.007" cy="-162" fill="#659dfe" stroke="#000" rx="62.014" ry="18"/><text x="62.007" y="-157.8" fill="#000" font-family="arial" font-size="14" text-anchor="middle">Traversable</text></a></g></g><g id="edge24" class="edge"><title>Traversable-&gt;Foldable</title><path fill="none" stroke="#000" d="M61.7545,-180.1686C61.6475,-187.869 61.5204,-197.0257 61.4015,-205.5834"/><polygon fill="#000" stroke="#000" points="57.902 -205.539 61.263 -215.587 64.901 -205.636 57.902 -205.539"/></g><g id="edge25" class="edge"><title>Traversable-&gt;Functor</title><path fill="none" stroke="#000" d="M108.5427,-174.0497C116.6845,-176.0858 125.0836,-178.1406 133.0068,-180 202.3666,-196.2775 282.9866,-213.363 333.5073,-223.8497"/><polygon fill="#000" stroke="#000" points="333.005 -227.32 343.507 -225.921 334.425 -220.465 333.005 -227.32"/></g><g id="edge12" class="edge"><title>Alt-&gt;Functor</title><path fill="none" stroke="#000" d="M307.131,-175.8823C320.3652,-186.0191 338.5864,-199.9758 353.8557,-211.6715"/><polygon fill="#000" stroke="#000" points="351.918 -214.596 361.985 -217.898 356.174 -209.038 351.918 -214.596"/></g><g id="edge18" class="edge"><title>Apply-&gt;Functor</title><path fill="none" stroke="#000" d="M463.8724,-176.9184C449.3973,-187.1361 429.9663,-200.8521 413.7795,-212.2781"/><polygon fill="#000" stroke="#000" points="411.324 -209.727 405.173 -218.353 415.361 -215.446 411.324 -209.727"/></g><g id="node25" class="node"><title>Bifunctor</title><g id="a_node25"><a xlink:href="./modules/Bifunctor.ts.html" xlink:title="Bifunctor"><ellipse cx="383.007" cy="-162" fill="#bfd7ff" stroke="#000" rx="49.27" ry="18"/><text x="383.007" y="-157.8" fill="#000" font-family="arial" font-size="14" text-anchor="middle">Bifunctor</text></a></g></g><g id="edge13" class="edge"><title>Bifunctor-&gt;Functor</title><path fill="none" stroke="#000" d="M383.0068,-180.1686C383.0068,-187.869 383.0068,-197.0257 383.0068,-205.5834"/><polygon fill="#000" stroke="#000" points="379.507 -205.587 383.007 -215.587 386.507 -205.587 379.507 -205.587"/></g><g id="edge20" class="edge"><title>Chain-&gt;Apply</title><path fill="none" stroke="#000" d="M485.0068,-108.1686C485.0068,-115.869 485.0068,-125.0257 485.0068,-133.5834"/><polygon fill="#000" stroke="#000" points="481.507 -133.587 485.007 -143.587 488.507 -133.587 481.507 -133.587"/></g><g id="node27" class="node"><title>ChainRec</title><g id="a_node27"><a xlink:href="./modules/ChainRec.ts.html" xlink:title="ChainRec"><ellipse cx="514.007" cy="-18" fill="#bfd7ff" stroke="#000" rx="53.348" ry="18"/><text x="514.007" y="-13.8" fill="#000" font-family="arial" font-size="14" text-anchor="middle">ChainRec</text></a></g></g><g id="edge21" class="edge"><title>ChainRec-&gt;Chain</title><path fill="none" stroke="#000" d="M506.6889,-36.1686C503.4704,-44.1594 499.6204,-53.7181 496.0636,-62.5486"/><polygon fill="#000" stroke="#000" points="492.712 -61.503 492.222 -72.087 499.205 -64.118 492.712 -61.503"/></g><g id="node28" class="node"><title>Comonad</title><g id="a_node28"><a xlink:href="./modules/Comonad.ts.html" xlink:title="Comonad"><ellipse cx="592.007" cy="-90" fill="#bfd7ff" stroke="#000" rx="52.785" ry="18"/><text x="592.007" y="-85.8" fill="#000" font-family="arial" font-size="14" text-anchor="middle">Comonad</text></a></g></g><g id="node29" class="node"><title>Extend</title><g id="a_node29"><a xlink:href="./modules/Extend.ts.html" xlink:title="Extend"><ellipse cx="583.007" cy="-162" fill="#bfd7ff" stroke="#000" rx="41.188" ry="18"/><text x="583.007" y="-157.8" fill="#000" font-family="arial" font-size="14" text-anchor="middle">Extend</text></a></g></g><g id="edge22" class="edge"><title>Comonad-&gt;Extend</title><path fill="none" stroke="#000" d="M589.7357,-108.1686C588.7732,-115.869 587.6286,-125.0257 586.5589,-133.5834"/><polygon fill="#000" stroke="#000" points="583.076 -133.23 585.308 -143.587 590.022 -134.098 583.076 -133.23"/></g><g id="edge23" class="edge"><title>Extend-&gt;Functor</title><path fill="none" stroke="#000" d="M550.8734,-173.568C516.9169,-185.7924 463.1928,-205.133 425.6967,-218.6316"/><polygon fill="#000" stroke="#000" points="424.282 -215.421 416.059 -222.101 426.654 -222.007 424.282 -215.421"/></g><g id="node30" class="node"><title>Filterable</title><g id="a_node30"><a xlink:href="./modules/Filterable.ts.html" xlink:title="Filterable"><ellipse cx="193.007" cy="-162" fill="#bfd7ff" stroke="#000" rx="50.974" ry="18"/><text x="193.007" y="-157.8" fill="#000" font-family="arial" font-size="14" text-anchor="middle">Filterable</text></a></g></g><g id="edge27" class="edge"><title>Filterable-&gt;Compactable</title><path fill="none" stroke="#000" d="M193.5115,-180.1686C193.7254,-187.869 193.9798,-197.0257 194.2175,-205.5834"/><polygon fill="#000" stroke="#000" points="190.719 -205.688 194.495 -215.587 197.716 -205.493 190.719 -205.688"/></g><g id="edge26" class="edge"><title>Filterable-&gt;Functor</title><path fill="none" stroke="#000" d="M227.8558,-175.2059C259.7404,-187.2885 306.982,-205.1906 340.953,-218.0638"/><polygon fill="#000" stroke="#000" points="340.006 -221.448 350.598 -221.719 342.487 -214.902 340.006 -221.448"/></g><g id="node31" class="node"><title>Witherable</title><g id="a_node31"><a xlink:href="./modules/Witherable.ts.html" xlink:title="Witherable"><ellipse cx="128.007" cy="-90" fill="#bfd7ff" stroke="#000" rx="57.355" ry="18"/><text x="128.007" y="-85.8" fill="#000" font-family="arial" font-size="14" text-anchor="middle">Witherable</text></a></g></g><g id="edge28" class="edge"><title>Witherable-&gt;Traversable</title><path fill="none" stroke="#000" d="M112.0301,-107.4292C103.9023,-116.2959 93.8773,-127.2322 84.9412,-136.9806"/><polygon fill="#000" stroke="#000" points="82.242 -134.745 78.065 -144.482 87.403 -139.475 82.242 -134.745"/></g><g id="edge29" class="edge"><title>Witherable-&gt;Filterable</title><path fill="none" stroke="#000" d="M143.7415,-107.4292C151.8054,-116.3615 161.7656,-127.3944 170.6153,-137.1971"/><polygon fill="#000" stroke="#000" points="168.118 -139.654 177.417 -144.731 173.314 -134.963 168.118 -139.654"/></g><g id="node32" class="node"><title>BooleanAlgebra</title><g id="a_node32"><a xlink:href="./modules/BooleanAlgebra.ts.html" xlink:title="BooleanAlgebra"><ellipse cx="1418.007" cy="-18" fill="#fdf4aa" stroke="#000" rx="79.965" ry="18"/><text x="1418.007" y="-13.8" fill="#000" font-family="arial" font-size="14" text-anchor="middle">BooleanAlgebra</text></a></g></g><g id="node38" class="node"><title>HeytingAlgebra</title><g id="a_node38"><a xlink:href="./modules/HeytingAlgebra.ts.html" xlink:title="HeytingAlgebra"><ellipse cx="1418.007" cy="-90" fill="#fdf4aa" stroke="#000" rx="77.078" ry="18"/><text x="1418.007" y="-85.8" fill="#000" font-family="arial" font-size="14" text-anchor="middle">HeytingAlgebra</text></a></g></g><g id="edge30" class="edge"><title>BooleanAlgebra-&gt;HeytingAlgebra</title><path fill="none" stroke="#000" d="M1418.0068,-36.1686C1418.0068,-43.869 1418.0068,-53.0257 1418.0068,-61.5834"/><polygon fill="#000" stroke="#000" points="1414.507 -61.587 1418.007 -71.587 1421.507 -61.587 1414.507 -61.587"/></g><g id="node33" class="node"><title>BoundedDistributiveLattice</title><g id="a_node33"><a xlink:href="./modules/BoundedDistributiveLattice.ts.html" xlink:title="BoundedDistributiveLattice"><ellipse cx="1418.007" cy="-162" fill="#fdf4aa" stroke="#000" rx="125.748" ry="18"/><text x="1418.007" y="-157.8" fill="#000" font-family="arial" font-size="14" text-anchor="middle">BoundedDistributiveLattice</text></a></g></g><g id="node35" class="node"><title>BoundedLattice</title><g id="a_node35"><a xlink:href="./modules/BoundedLattice.ts.html" xlink:title="BoundedLattice"><ellipse cx="1509.007" cy="-234" fill="#fdf4aa" stroke="#000" rx="78.26" ry="18"/><text x="1509.007" y="-229.8" fill="#000" font-family="arial" font-size="14" text-anchor="middle">BoundedLattice</text></a></g></g><g id="edge32" class="edge"><title>BoundedDistributiveLattice-&gt;BoundedLattice</title><path fill="none" stroke="#000" d="M1440.5012,-179.7978C1452.1584,-189.0211 1466.5497,-200.4075 1479.1281,-210.3597"/><polygon fill="#000" stroke="#000" points="1477.071 -213.195 1487.085 -216.655 1481.415 -207.706 1477.071 -213.195"/></g><g id="node37" class="node"><title>DistributiveLattice</title><g id="a_node37"><a xlink:href="./modules/DistributiveLattice.ts.html" xlink:title="DistributiveLattice"><ellipse cx="1326.007" cy="-234" fill="#fdf4aa" stroke="#000" rx="87.449" ry="18"/><text x="1326.007" y="-229.8" fill="#000" font-family="arial" font-size="14" text-anchor="middle">DistributiveLattice</text></a></g></g><g id="edge34" class="edge"><title>BoundedDistributiveLattice-&gt;DistributiveLattice</title><path fill="none" stroke="#000" d="M1395.2652,-179.7978C1383.5672,-188.9527 1369.1459,-200.239 1356.4968,-210.1383"/><polygon fill="#000" stroke="#000" points="1354.205 -207.488 1348.487 -216.407 1358.519 -213 1354.205 -207.488"/></g><g id="node34" class="node"><title>BoundedJoinSemilattice</title><g id="a_node34"><a xlink:href="./modules/BoundedJoinSemilattice.ts.html" xlink:title="BoundedJoinSemilattice"><ellipse cx="1498.007" cy="-306" fill="#fdf4aa" stroke="#000" rx="114.715" ry="18"/><text x="1498.007" y="-301.8" fill="#000" font-family="arial" font-size="14" text-anchor="middle">BoundedJoinSemilattice</text></a></g></g><g id="node39" class="node"><title>JoinSemilattice</title><g id="a_node39"><a xlink:href="./modules/JoinSemilattice.ts.html" xlink:title="JoinSemilattice"><ellipse cx="1412.007" cy="-378" fill="#fdf4aa" stroke="#000" rx="75.915" ry="18"/><text x="1412.007" y="-373.8" fill="#000" font-family="arial" font-size="14" text-anchor="middle">JoinSemilattice</text></a></g></g><g id="edge38" class="edge"><title>BoundedJoinSemilattice-&gt;JoinSemilattice</title><path fill="none" stroke="#000" d="M1476.7484,-323.7978C1465.8366,-332.9332 1452.39,-344.1908 1440.584,-354.075"/><polygon fill="#000" stroke="#000" points="1438.145 -351.552 1432.724 -360.655 1442.638 -356.92 1438.145 -351.552"/></g><g id="edge33" class="edge"><title>BoundedLattice-&gt;BoundedJoinSemilattice</title><path fill="none" stroke="#000" d="M1506.2311,-252.1686C1505.0546,-259.869 1503.6557,-269.0257 1502.3483,-277.5834"/><polygon fill="#000" stroke="#000" points="1498.87 -277.173 1500.82 -287.587 1505.79 -278.23 1498.87 -277.173"/></g><g id="node36" class="node"><title>BoundedMeetSemilattice</title><g id="a_node36"><a xlink:href="./modules/BoundedMeetSemilattice.ts.html" xlink:title="BoundedMeetSemilattice"><ellipse cx="1749.007" cy="-306" fill="#fdf4aa" stroke="#000" rx="118.226" ry="18"/><text x="1749.007" y="-301.8" fill="#000" font-family="arial" font-size="14" text-anchor="middle">BoundedMeetSemilattice</text></a></g></g><g id="edge39" class="edge"><title>BoundedLattice-&gt;BoundedMeetSemilattice</title><path fill="none" stroke="#000" d="M1556.7101,-248.311C1593.5864,-259.3739 1644.9848,-274.7934 1685.3662,-286.9078"/><polygon fill="#000" stroke="#000" points="1684.532 -290.312 1695.116 -289.833 1686.543 -283.607 1684.532 -290.312"/></g><g id="node41" class="node"><title>MeetSemilattice</title><g id="a_node41"><a xlink:href="./modules/MeetSemilattice.ts.html" xlink:title="MeetSemilattice"><ellipse cx="1667.007" cy="-378" fill="#fdf4aa" stroke="#000" rx="79.926" ry="18"/><text x="1667.007" y="-373.8" fill="#000" font-family="arial" font-size="14" text-anchor="middle">MeetSemilattice</text></a></g></g><g id="edge40" class="edge"><title>BoundedMeetSemilattice-&gt;MeetSemilattice</title><path fill="none" stroke="#000" d="M1728.7372,-323.7978C1718.5093,-332.7783 1705.9457,-343.8098 1694.8286,-353.5711"/><polygon fill="#000" stroke="#000" points="1692.248 -351.179 1687.043 -360.407 1696.867 -356.439 1692.248 -351.179"/></g><g id="node40" class="node"><title>Lattice</title><g id="a_node40"><a xlink:href="./modules/Lattice.ts.html" xlink:title="Lattice"><ellipse cx="1326.007" cy="-306" fill="#fdf4aa" stroke="#000" rx="39.46" ry="18"/><text x="1326.007" y="-301.8" fill="#000" font-family="arial" font-size="14" text-anchor="middle">Lattice</text></a></g></g><g id="edge35" class="edge"><title>DistributiveLattice-&gt;Lattice</title><path fill="none" stroke="#000" d="M1326.0068,-252.1686C1326.0068,-259.869 1326.0068,-269.0257 1326.0068,-277.5834"/><polygon fill="#000" stroke="#000" points="1322.507 -277.587 1326.007 -287.587 1329.507 -277.587 1322.507 -277.587"/></g><g id="edge31" class="edge"><title>HeytingAlgebra-&gt;BoundedDistributiveLattice</title><path fill="none" stroke="#000" d="M1418.0068,-108.1686C1418.0068,-115.869 1418.0068,-125.0257 1418.0068,-133.5834"/><polygon fill="#000" stroke="#000" points="1414.507 -133.587 1418.007 -143.587 1421.507 -133.587 1414.507 -133.587"/></g><g id="edge36" class="edge"><title>Lattice-&gt;JoinSemilattice</title><path fill="none" stroke="#000" d="M1345.093,-321.9791C1356.2967,-331.359 1370.6762,-343.3976 1383.2321,-353.9095"/><polygon fill="#000" stroke="#000" points="1381.254 -356.818 1391.168 -360.554 1385.747 -351.45 1381.254 -356.818"/></g><g id="edge37" class="edge"><title>Lattice-&gt;MeetSemilattice</title><path fill="none" stroke="#000" d="M1355.6954,-318.062C1361.6942,-320.235 1368.0034,-322.3352 1374.0068,-324 1445.3904,-343.7954 1528.6042,-358.3425 1588.0711,-367.3182"/><polygon fill="#000" stroke="#000" points="1587.74 -370.807 1598.147 -368.82 1588.772 -363.884 1587.74 -370.807"/></g></g></svg>